<svg width="360" height="360" viewBox="0 0 360 360" fill="none" xmlns="http://www.w3.org/2000/svg">
<rect width="360" height="360" transform="matrix(1 0 0 -1 0 360)" fill="#A6D6A2"/>
<mask id="path-1-inside-1_225_13597" fill="white">
<path d="M60 97C60 99.2091 61.7909 101 64 101H296C298.209 101 300 99.2091 300 97V0H60V97Z"/>
</mask>
<path d="M56 97C56 101.418 59.5817 105 64 105H296C300.418 105 304 101.418 304 97H296H64H56ZM300 0H60H300ZM56 0V97C56 101.418 59.5817 105 64 105V97V0H56ZM296 105C300.418 105 304 101.418 304 97V0H296V97V105Z" fill="#BEDFBC" mask="url(#path-1-inside-1_225_13597)"/>
<mask id="path-3-inside-2_225_13597" fill="white">
<path d="M126 36C126 38.2091 127.791 40 130 40H230C232.209 40 234 38.2091 234 36V0H126V36Z"/>
</mask>
<path d="M122 36C122 40.4183 125.582 44 130 44H230C234.418 44 238 40.4183 238 36H230H130H122ZM234 0H126H234ZM122 0V36C122 40.4183 125.582 44 130 44V36V0H122ZM230 44C234.418 44 238 40.4183 238 36V0H230V36V44Z" fill="#BEDFBC" mask="url(#path-3-inside-2_225_13597)"/>
<path d="M218 101C208.73 111.422 195.142 118 180 118C164.858 118 151.27 111.422 142 101H147.581C155.961 109.046 167.395 114 180 114C192.605 114 204.039 109.046 212.419 101H218Z" fill="#BEDFBC"/>
<path d="M226 360C226 334.595 205.405 314 180 314C154.595 314 134 334.595 134 360H130C130 332.386 152.386 310 180 310C207.614 310 230 332.386 230 360H226Z" fill="#BEDFBC"/>
<rect width="360" height="2" transform="matrix(1 0 0 -1 0 360)" fill="#BEDFBC"/>
<path d="M15.9999 0C15.9999 8.83651 8.8365 15.9999 0 16V12.7997C7.06904 12.7996 12.7996 7.06905 12.7996 0H15.9999Z" fill="#BEDFBC"/>
<path d="M344 0C344 8.83651 351.163 15.9999 360 16V12.7997C352.931 12.7996 347.2 7.06905 347.2 0H344Z" fill="#BEDFBC"/>
<rect width="360" height="4" transform="matrix(1 0 0 -1 0 4)" fill="#BEDFBC"/>
</svg>
